PathFileType	4	(X/Y/Z)	s04c0402.trc
DataRate	CameraRate	NumFrames	NumMarkers	Units	OrigDataRate	OrigDataStartFrame	OrigNumFrames
200	200	6	50	mm	200	750	2000
Frame#	Time	racr			lacr			c7			jug			rlel			rdr			llel			ldr			s2			lic			ric			lasi			rasi			rpsi			lpsi			rgt			lgt			rth1			rth2			rth3			rth4			rlfc			rmfc			rsh1			rsh2			rsh3			rsh4			rlmal			rmmal			rcal			rtoe			rmt5			lth1			lth2			lth4			lth3			llfc			lmfc			lsh1			lsh2			lsh3			lsh4			llmal			lmmal			lcal			ltoe			lmt5			SBIKE			LBIKE			RBIKE			
		X1	Y1	Z1	X2	Y2	Z2	X3	Y3	Z3	X4	Y4	Z4	X5	Y5	Z5	X6	Y6	Z6	X7	Y7	Z7	X8	Y8	Z8	X9	Y9	Z9	X10	Y10	Z10	X11	Y11	Z11	X12	Y12	Z12	X13	Y13	Z13	X14	Y14	Z14	X15	Y15	Z15	X16	Y16	Z16	X17	Y17	Z17	X18	Y18	Z18	X19	Y19	Z19	X20	Y20	Z20	X21	Y21	Z21	X22	Y22	Z22	X23	Y23	Z23	X24	Y24	Z24	X25	Y25	Z25	X26	Y26	Z26	X27	Y27	Z27	X28	Y28	Z28	X29	Y29	Z29	X30	Y30	Z30	X31	Y31	Z31	X32	Y32	Z32	X33	Y33	Z33	X34	Y34	Z34	X35	Y35	Z35	X36	Y36	Z36	X37	Y37	Z37	X38	Y38	Z38	X39	Y39	Z39	X40	Y40	Z40	X41	Y41	Z41	X42	Y42	Z42	X43	Y43	Z43	X44	Y44	Z44	X45	Y45	Z45	X46	Y46	Z46	X47	Y47	Z47	X48	Y48	Z48	X49	Y49	Z49	X50	Y50	Z50	
750	3.7500	796.328416	1335.904765	-160.229914	842.552751	1240.982212	-463.955289	824.021537	1384.052947	-335.422912	762.329970	1235.875304	-310.173413	566.099817	1172.399308	9.306444	696.004971	941.017535	-90.855690	597.216839	1147.267646	-629.848826	686.476625	941.783366	-493.092221	225.874148	1295.599809	-260.577747	346.981559	1275.066170	-438.319637	399.424745	1253.092250	-120.337012	383.799058	1224.736299	-407.402904	416.026905	1190.612724	-171.302562	275.746666	1325.281363	-224.052204	261.616859	1336.116696	-295.425697	327.462963	1200.464860	-101.125556	310.526511	1204.865883	-462.531164	344.093672	1037.666778	-81.209665	363.299818	951.914628	-90.088813	340.856222	869.362426	-92.124721	395.781764	953.033337	-108.653727	328.651557	719.935058	-116.219159	298.831600	707.936729	-227.917133	252.238037	620.404837	-87.918229	222.749394	535.428797	-104.027601	155.989782	481.107189	-109.613617	250.627410	520.985105	-127.357093	82.698885	344.965033	-114.108185	104.667708	343.790054	-198.984595	14.319975	357.234519	-151.787297	240.175270	155.305286	-166.844278	175.766995	175.027467	-107.382241	361.153166	1133.661564	-467.085339	438.446587	1094.115593	-471.224419	462.641060	1120.607275	-461.534631	487.036478	1020.256332	-476.534449	589.006321	896.903325	-459.033883	617.662140	867.533246	-347.156824	525.288696	804.032993	-480.673502	484.498895	728.148459	-462.344112	409.154995	680.500726	-459.043954	507.306490	710.742521	-436.141057	304.797642	573.742940	-451.068647	314.515764	581.942906	-362.920321	221.840678	591.451441	-410.880283	475.560580	428.131264	-413.793418	396.696168	431.999189	-476.362306	-185.291801	933.104924	-286.533208	-17.650375	79.386413	-485.340815	-17.562701	79.505986	-84.782541	
751	3.7550	795.307859	1334.986576	-160.329148	841.386309	1238.468700	-463.226779	824.161178	1382.849642	-335.509978	761.050843	1235.206536	-310.325365	564.581589	1172.176785	9.022493	695.870151	941.028637	-90.406035	597.248443	1146.309256	-630.823747	686.492167	941.788686	-493.027165	226.439418	1298.975656	-262.782891	347.602454	1275.536679	-439.464111	398.906775	1256.433671	-121.403267	383.882228	1224.590996	-408.048883	415.533735	1193.109913	-171.164968	275.900882	1328.805800	-225.547774	262.521790	1338.677861	-297.951214	327.749518	1203.874534	-101.593556	310.381986	1206.840679	-463.316294	348.548849	1039.826809	-82.449960	370.373113	954.763942	-92.026236	350.741192	871.633813	-93.721233	402.372114	956.943796	-111.331574	341.457538	722.473515	-117.210882	310.790857	710.953766	-228.256397	260.640716	624.821517	-88.515869	228.452467	540.770951	-104.979048	159.870772	488.830234	-110.865797	255.468303	525.700349	-128.521168	81.307285	355.372438	-116.106482	104.736244	353.066612	-200.793605	13.761375	369.515707	-155.960046	232.094279	158.370399	-165.094063	167.976246	182.016597	-106.807451	359.392839	1134.170759	-467.651892	435.778815	1092.691344	-471.614340	460.437688	1118.754408	-462.275853	482.302722	1017.701981	-476.940869	583.116255	891.666910	-458.760262	611.980828	862.259746	-347.404965	520.983372	796.033130	-481.058171	481.897080	720.323545	-463.429855	407.103228	670.976402	-459.730658	504.492847	703.327199	-435.785736	304.855233	562.566933	-451.976652	312.092119	571.158075	-363.019863	220.935581	576.812555	-412.136428	482.045646	425.738794	-414.005747	403.384696	425.583260	-476.789858	-185.263227	933.133934	-286.646650	-17.667858	79.371709	-485.363888	-17.559419	79.551876	-84.798713	
752	3.7600	794.524946	1334.282455	-160.238804	839.960052	1236.423408	-462.437050	824.317502	1381.988366	-335.221238	759.723085	1234.906861	-310.196241	563.055390	1171.880722	8.670253	695.630273	941.042394	-90.317005	597.273875	1145.297503	-631.781594	686.381475	941.704972	-492.827729	227.032584	1302.116204	-265.121898	350.724516	1275.674957	-442.479127	398.236572	1259.614509	-122.464975	384.087265	1224.228096	-408.672370	415.035735	1195.461686	-171.112381	276.395837	1332.007092	-227.899507	263.471310	1340.998469	-300.427496	328.240182	1207.331919	-102.035413	310.111370	1208.197761	-464.058399	353.347390	1042.221254	-83.558758	377.789880	957.840614	-94.188623	361.046610	874.167417	-95.436354	409.226440	961.155164	-114.022750	355.008455	725.204209	-117.910389	323.376757	713.959687	-228.674263	269.428856	629.563986	-89.100946	234.712473	546.622048	-105.863761	164.460319	496.845684	-112.091514	261.279860	530.828129	-129.620926	80.955715	365.904454	-117.890614	105.649311	362.515848	-202.627178	14.551375	382.148269	-159.990802	224.725482	161.742292	-163.210556	160.658651	189.228619	-106.794707	357.702707	1133.900697	-468.435839	432.992769	1090.654420	-472.270963	458.360524	1116.072985	-463.067840	477.648492	1014.415131	-477.128002	576.670189	885.819456	-458.524573	605.783526	856.567997	-347.738448	516.570420	787.292065	-481.795842	478.844860	710.749993	-463.508275	405.021149	660.293500	-460.073594	501.637559	694.776715	-435.712806	304.705327	550.711164	-452.825973	309.403958	559.394784	-362.830429	220.101015	561.394248	-413.034537	488.261379	423.173288	-414.863487	409.323348	418.498188	-477.287336	-185.190819	933.173183	-286.834714	-17.649535	79.381721	-485.366609	-17.557701	79.619054	-84.812954	
753	3.7650	793.959141	1333.665800	-159.858809	838.456137	1234.843206	-461.748242	824.459512	1381.213486	-334.686787	758.468319	1234.684273	-309.740965	561.519833	1171.482931	8.232067	695.720141	941.307224	-90.496229	597.160926	1144.165499	-632.703703	686.144863	941.452769	-492.428592	227.731518	1304.587414	-267.435382	351.581551	1275.562514	-443.940877	397.552310	1262.518731	-123.554536	384.406532	1223.650091	-409.278821	414.559584	1197.529056	-171.140963	276.928640	1334.882955	-230.718908	264.393763	1342.926842	-302.822864	328.861455	1210.636968	-102.724745	309.714182	1208.872595	-464.745098	358.373402	1044.604719	-85.199847	385.383378	961.233128	-96.361330	371.605679	876.981674	-97.077039	416.356110	965.548954	-116.655155	368.328835	728.077685	-119.159525	336.495778	716.871669	-229.400386	278.392128	634.665314	-90.023431	241.339306	552.833204	-106.701641	169.609466	505.171566	-113.321287	267.389795	536.342498	-130.716681	81.310648	376.623468	-119.535686	107.353852	372.195210	-204.445240	16.626694	395.149127	-163.559238	217.662635	164.938599	-161.605134	154.127737	197.063408	-107.632075	356.061402	1132.813770	-469.382980	430.413613	1087.895254	-472.905573	456.198392	1112.603074	-464.082951	473.109586	1010.368869	-477.302346	569.699249	879.240351	-458.515656	599.115129	850.052598	-348.093457	512.183325	777.728689	-482.344024	475.575467	700.577553	-463.100658	403.062870	648.734532	-460.299298	498.843575	684.998892	-436.019840	304.547693	537.939732	-453.414504	306.042625	546.130797	-362.945979	219.667676	545.004080	-413.551333	493.534981	419.118090	-415.315273	414.886927	410.952399	-477.658010	-185.089013	933.195229	-287.077250	-17.630554	79.344603	-485.394829	-17.524260	79.632587	-84.860138	
754	3.7700	793.648116	1333.268004	-159.112468	836.725455	1233.994539	-461.135363	824.277217	1380.720310	-334.136592	757.382311	1234.574661	-309.014755	560.081765	1170.984989	7.734754	694.979499	940.997915	-91.069059	597.222234	1143.171998	-633.776194	685.891126	941.233201	-492.113472	228.352548	1306.544118	-269.673755	349.653731	1274.962935	-443.369047	396.850630	1265.189547	-124.644639	384.832353	1222.859103	-409.873807	414.164033	1199.420599	-171.145333	277.287288	1337.132041	-233.029022	265.269235	1344.298685	-305.412036	329.666925	1213.729815	-103.463253	309.104627	1208.659959	-465.469961	363.448719	1047.204972	-87.108038	393.078322	964.906799	-98.467548	382.270608	880.255297	-98.803738	423.510970	970.210065	-119.210416	381.077911	731.323535	-119.444266	349.599266	719.997110	-230.033118	287.353298	640.120958	-90.669738	248.116181	559.320675	-107.681132	175.027981	513.727928	-114.573153	273.733323	542.194610	-131.791462	82.838818	386.945222	-121.544546	109.886003	381.918088	-206.166933	19.716673	408.070086	-166.471165	211.134087	169.495809	-160.713758	148.214021	205.252380	-108.633902	354.454541	1130.879931	-470.356768	427.705031	1084.426354	-473.798671	454.026304	1108.592890	-465.198338	468.705048	1005.851597	-477.623776	562.736386	872.194284	-458.349233	591.967697	843.068643	-348.470661	507.690898	767.472121	-482.507580	472.416984	690.063881	-462.678137	401.174391	636.484273	-460.180971	495.828948	675.406606	-435.092155	304.495408	524.989555	-453.569251	303.156589	531.827969	-363.439882	219.334696	528.727549	-413.857621	498.280170	414.119485	-415.508878	420.061852	402.831866	-477.928144	-184.966423	933.242765	-287.371944	-17.598710	79.298961	-485.450766	-17.475750	79.653708	-84.888090	
755	3.7750	793.555434	1332.967957	-158.092648	834.853329	1233.697163	-460.621899	824.359640	1380.413480	-333.030154	756.130619	1234.826855	-307.912675	558.812520	1170.410344	7.215848	694.672499	940.868696	-91.786093	597.076749	1142.193659	-634.681491	685.590342	940.772190	-491.724013	228.939139	1307.986883	-271.886325	350.383578	1274.126812	-444.889536	396.133017	1267.562099	-125.949524	385.357026	1221.857745	-410.462845	413.804850	1201.012685	-171.288934	277.357856	1338.864319	-234.739254	266.167947	1345.231036	-308.068388	330.502738	1216.658138	-104.300784	308.303325	1207.533057	-465.998898	368.394990	1050.281218	-88.719180	400.674151	968.861385	-100.699984	392.781831	883.964164	-100.617627	430.635741	975.072995	-121.597635	392.511108	734.730869	-119.808206	362.104703	723.436981	-230.764089	296.322859	645.753495	-91.563158	255.017009	565.963453	-108.740865	180.738494	522.349427	-116.053678	280.258777	548.271764	-132.498343	85.345913	397.174157	-123.575185	113.191181	391.418821	-207.700975	22.919993	420.722903	-169.276288	204.852731	174.579853	-160.004206	142.771766	213.214254	-108.919424	352.783583	1128.392894	-471.301154	425.305124	1080.263684	-474.088884	451.930545	1104.012493	-466.434906	464.422362	1000.907927	-478.074285	555.627064	864.467843	-458.487046	584.655913	835.801540	-348.926291	503.043694	756.900002	-482.363378	469.232917	679.001274	-461.836490	399.402465	623.834105	-459.525797	492.660464	664.885151	-433.427281	304.637763	511.646465	-453.501273	300.774570	517.002521	-364.097348	219.733805	511.987721	-413.266668	502.478001	408.345443	-415.637022	424.691827	394.283823	-478.043592	-184.796983	933.313898	-287.677651	-17.567962	79.273643	-485.473965	-17.479818	79.777568	-84.936538	
